<svg width="19" height="19" viewBox="0 0 19 19" fill="none" xmlns="http://www.w3.org/2000/svg">
<path fill-rule="evenodd" clip-rule="evenodd" d="M5.33333 6.375C5.33333 5.26993 5.77232 4.21012 6.55372 3.42872C7.33512 2.64732 8.39493 2.20833 9.5 2.20833C10.6051 2.20833 11.6649 2.64732 12.4463 3.42872C13.2277 4.21012 13.6667 5.26993 13.6667 6.375C13.6667 7.48007 13.2277 8.53988 12.4463 9.32128C11.6649 10.1027 10.6051 10.5417 9.5 10.5417C8.39493 10.5417 7.33512 10.1027 6.55372 9.32128C5.77232 8.53988 5.33333 7.48007 5.33333 6.375ZM13.4833 11.1906C14.4745 10.3707 15.1885 9.26488 15.528 8.02413C15.8674 6.78337 15.8157 5.4681 15.38 4.25779C14.9443 3.04749 14.1457 2.00111 13.0933 1.26145C12.0408 0.52179 10.7858 0.124878 9.49948 0.124878C8.21313 0.124878 6.95811 0.52179 5.90568 1.26145C4.85326 2.00111 4.05469 3.04749 3.61896 4.25779C3.18323 5.4681 3.13156 6.78337 3.47101 8.02413C3.81045 9.26488 4.52447 10.3707 5.51562 11.1906C2.19375 12.3604 0.125 14.9656 0.125 17.8333C0.125 18.1096 0.234747 18.3746 0.430097 18.5699C0.625447 18.7653 0.890399 18.875 1.16667 18.875C1.44293 18.875 1.70789 18.7653 1.90324 18.5699C2.09859 18.3746 2.20833 18.1096 2.20833 17.8333C2.20833 15.4687 4.66146 12.625 9.5 12.625C14.3385 12.625 16.7917 15.4687 16.7917 17.8333C16.7917 18.1096 16.9014 18.3746 17.0968 18.5699C17.2921 18.7653 17.5571 18.875 17.8333 18.875C18.1096 18.875 18.3746 18.7653 18.5699 18.5699C18.7653 18.3746 18.875 18.1096 18.875 17.8333C18.875 14.9656 16.8083 12.3604 13.4833 11.1906Z" fill="#201F25"/>
</svg>
