<svg width="26" height="17" viewBox="0 0 26 17" fill="none" xmlns="http://www.w3.org/2000/svg">
<path fill-rule="evenodd" clip-rule="evenodd" d="M16.7268 2.21336C15.898 2.21336 15.1031 2.5426 14.5171 3.12865C13.931 3.7147 13.6018 4.50955 13.6018 5.33836C13.6018 6.16716 13.931 6.96201 14.5171 7.54807C15.1031 8.13412 15.898 8.46336 16.7268 8.46336C17.5556 8.46336 18.3505 8.13412 18.9365 7.54807C19.5226 6.96201 19.8518 6.16716 19.8518 5.33836C19.8518 4.50955 19.5226 3.7147 18.9365 3.12865C18.3505 2.5426 17.5556 2.21336 16.7268 2.21336ZM11.5185 5.33836C11.5185 4.48935 11.726 3.65322 12.1231 2.90277C12.5201 2.15232 13.0946 1.51031 13.7964 1.03263C14.4983 0.554956 15.3063 0.256102 16.1501 0.162094C16.9939 0.0680862 17.8479 0.181774 18.6377 0.493258C19.4275 0.804743 20.1291 1.30458 20.6816 1.94924C21.2341 2.59391 21.6205 3.36385 21.8074 4.19204C21.9943 5.02022 21.9759 5.88153 21.7537 6.70096C21.5316 7.5204 21.1126 8.27311 20.5331 8.89356C22.3002 9.46843 23.828 10.611 24.8789 12.1436C25.0255 12.3719 25.0772 12.6484 25.0231 12.9142C24.9689 13.1801 24.8132 13.4143 24.589 13.5671C24.3648 13.7199 24.0899 13.7792 23.8226 13.7324C23.5554 13.6856 23.317 13.5364 23.1581 13.3165C22.1414 11.8248 20.2872 10.5467 17.7685 10.5467C13.7747 10.5467 11.5185 13.7488 11.5185 15.755C11.5185 16.0313 11.4087 16.2962 11.2134 16.4916C11.018 16.6869 10.7531 16.7967 10.4768 16.7967C10.2005 16.7967 9.93559 16.6869 9.74024 16.4916C9.54489 16.2962 9.43514 16.0313 9.43514 15.755C9.43514 15.0342 9.59972 14.2654 9.91431 13.5081C9.83251 13.4552 9.75853 13.391 9.69451 13.3175C8.83931 12.3446 7.51222 11.5884 5.78931 11.5884C4.06639 11.5884 2.73931 12.3446 1.8841 13.3175C1.69892 13.5142 1.44457 13.6313 1.17471 13.644C0.904863 13.6567 0.640623 13.5641 0.437758 13.3857C0.234892 13.2073 0.109271 12.9571 0.0874046 12.6878C0.0655379 12.4185 0.149136 12.1513 0.320557 11.9425C0.935679 11.2424 1.68158 10.6692 2.51639 10.255C1.84942 9.6041 1.39162 8.76913 1.20146 7.85678C1.0113 6.94442 1.09743 5.99609 1.44882 5.13292C1.80022 4.26974 2.40094 3.53091 3.17426 3.01078C3.94758 2.49065 4.85839 2.21285 5.79035 2.21285C6.72231 2.21285 7.63312 2.49065 8.40644 3.01078C9.17975 3.53091 9.78048 4.26974 10.1319 5.13292C10.4833 5.99609 10.5694 6.94442 10.3792 7.85678C10.1891 8.76913 9.73128 9.6041 9.06431 10.255C9.78697 10.6137 10.4438 11.092 11.007 11.6696C11.7145 10.7794 12.5946 10.0413 13.5945 9.49981C12.9492 9.01489 12.4257 8.3864 12.0654 7.6641C11.705 6.94181 11.5178 6.14554 11.5185 5.33836ZM3.18514 6.90086C3.18514 6.21019 3.45951 5.54781 3.94788 5.05943C4.43626 4.57106 5.09864 4.29669 5.78931 4.29669C6.47997 4.29669 7.14235 4.57106 7.63073 5.05943C8.11911 5.54781 8.39347 6.21019 8.39347 6.90086C8.39347 7.59152 8.11911 8.2539 7.63073 8.74228C7.14235 9.23065 6.47997 9.50502 5.78931 9.50502C5.09864 9.50502 4.43626 9.23065 3.94788 8.74228C3.45951 8.2539 3.18514 7.59152 3.18514 6.90086Z" fill="#201F25"/>
</svg>
