<svg width="21" height="20" viewBox="0 0 21 20" fill="none" xmlns="http://www.w3.org/2000/svg">
<path d="M16.9629 7.48169C15.9424 4.71944 13.3007 2.74546 10.1924 2.74546C7.09741 2.74546 4.46245 4.70158 3.43526 7.44596C3.38167 7.38567 3.32585 7.32761 3.26555 7.27625C3.84837 3.93119 6.72673 1.38778 10.1968 1.38778C13.6513 1.38778 16.5207 3.90663 17.1237 7.22712C17.0611 7.30751 17.0075 7.39237 16.9629 7.48169ZM18.4054 6.57731C18.392 6.57731 18.3808 6.57955 18.3675 6.57955C17.4988 2.81691 14.1761 0.0100098 10.1946 0.0100098C6.10372 0.0100098 2.70507 2.97322 1.95254 6.89217C1.20448 7.03062 0.659624 7.68489 0.66409 8.44635V11.5614C0.66409 12.4345 1.36526 13.1424 2.22943 13.1424C2.71623 13.1424 3.1472 12.9124 3.43303 12.5596C4.12527 14.3839 5.52314 15.8577 7.31402 16.6393C7.33635 16.5946 7.36314 16.5522 7.39217 16.512C7.4212 16.4763 7.45246 16.445 7.47926 16.445C7.50606 16.445 7.53285 16.454 7.55518 16.4696C7.14207 16.1614 5.65265 14.5849 5.32886 12.3809C5.18818 11.4118 5.91391 10.4583 6.76023 10.302C8.1179 10.0497 9.46888 9.7616 10.8266 9.51373C11.6907 9.35742 12.2802 8.88179 12.6398 8.09353C12.7246 7.90819 12.8474 7.53528 12.9033 6.99936C12.9167 6.91897 12.9859 6.85868 13.0685 6.85868C13.1221 6.85868 13.1712 6.88547 13.2025 6.9279L13.2404 6.90557C13.7764 7.68266 14.8371 9.40432 14.9889 11.2175C15.1631 13.292 15.0671 14.7122 13.4794 16.1659L13.4727 16.1726C13.4503 16.1972 13.4369 16.2284 13.4369 16.2619C13.4369 16.3043 13.4593 16.3445 13.495 16.3669C13.5084 16.3713 13.5218 16.3803 13.5352 16.3847C13.5464 16.387 13.5553 16.3892 13.5665 16.3914C13.5776 16.3914 13.5866 16.3892 13.5955 16.3847C13.6178 16.3736 13.6402 16.3602 13.6625 16.3468C15.2837 15.4513 16.5029 13.9708 17.0678 12.2068C17.3037 12.5543 17.6658 12.7962 18.0772 12.8811C17.4073 15.9381 14.6785 17.8541 11.3 18.1421C11.0856 17.6196 10.5765 17.2802 10.0137 17.2824C9.25004 17.2824 8.62926 17.8876 8.62926 18.6334C8.62926 19.3792 9.25004 19.9844 10.0137 19.9844C10.6077 19.9866 11.1369 19.607 11.3245 19.0443C15.2345 18.7272 18.3697 16.4026 19.024 12.7918C19.6202 12.5462 20.0087 11.9656 20.0087 11.3202V8.17392C20.0132 7.29188 19.2942 6.57731 18.4054 6.57731Z" fill="#616164"/>
</svg>
